<svg xmlns="http://www.w3.org/2000/svg" viewBox="0 0 16 16"><path fill="currentColor" d="m0.216 16c-0.0255-0.0406 0.145-0.107 0.171-0.147 0.0303-0.0482 1.76-0.0542 6.36-0.0967 5.03-0.0464 6.27 0.0069 6.25 0.129-0.0237 0.121-0.821 0.176-6.28 0.147-4.63 0.0124-6.48 0.0169-6.51-0.0319zm13.4-0.107c0-0.142 0.976-0.181 0.982 0.0194 0 0.158-0.982 0.125-0.982-0.0194zm-13-1.07c0.57-1.27 2.5-4.15 2.9-4.8 0.0713-0.117 0.0533-0.412 0.114-0.962 0.0922-0.831 0.23-1.31 0.565-1.97 0.237-0.466 0.758-1.17 0.863-1.17 0.0397 0 0.0749 0.141 0.0781 0.312 0.00547 0.295 0.0193 0.274 0.246-0.376l0.24-0.688 0.856-0.73c1.26-1.07 3.71-2.85 3.93-2.85 0.0379 0 0.0559 0.124 0.0401 0.276l-0.0287 0.276 0.269-0.385c0.154-0.221 0.388-0.445 0.548-0.525 0.708-0.355 2.12-0.842 2.92-1 1.02-0.208 1.2-0.217 1.55-0.0733 0.224 0.092 0.259 0.141 0.259 0.357 0 0.602-0.806 1.64-2.9 3.73l-1.52 1.52-0.502 0.0548c-0.486 0.053-0.494 0.0573-0.264 0.137 0.131 0.0452 0.261 0.106 0.289 0.134 0.0595 0.0595-0.376 0.462-1.68 1.55l-0.915 0.765-1.14 0.189 0.319 0.0659c0.183 0.0379 0.299 0.0976 0.272 0.14-0.0989 0.157-1.09 0.729-1.7 0.975-0.348 0.142-0.918 0.316-1.26 0.386l-0.631 0.128-1.3 1.73c-1.24 1.65-2.36 3.24-2.53 3.24-0.0382 0 0.0158-0.19 0.12-0.423zm1.46-1.87c2.25-3.29 3.78-5.17 5.84-7.13 1.1-1.05 0.68-0.773-0.781 0.515-1.4 1.23-2.72 2.73-3.73 4.22-0.942 1.39-2.88 4.47-2.77 4.47 0.0215 0 1.18-1.7 1.44-2.07zm3.97-3.44c1.2e-6 -3e-6 8e-6 2.4e-6 0 0zm-5.75 6.51c-0.234-0.0071-0.449-0.105-0.267-0.363 0.217-0.307 0.449-0.462 0.374-0.297-0.191 0.421 0.56 0.426 0.814 0.444 0.22 0.0154-0.383 0.231-0.921 0.215z"/></svg>
